# xmcd CD database file
#
# Track frame offsets:
#	150
#	13943
#	36211
#	54443
#	72346
#	90296
#	119583
#	148742
#	167366
#	200357
#	218375
#	236678
#	258684
#	287286
#	306877
#
# Disc length: 4343 seconds
#
# Revision: 0
# Processed by: cddbd v1.5.2PL0 Copyright (c) Steve Scherf et al.
# Submitted via: CDex 1.70beta2
#
DISCID=d010f50f
DTITLE=Bondi Cigars  - Bondi Cigars Disc 2
DYEAR=2006
DGENRE=Jazz
TTITLE0=Paris On $10 A Day
TTITLE1=Intensive Care
TTITLE2=Life After You
TTITLE3=Separation Blues
TTITLE4=Leaving Thing
TTITLE5=Second Skin
TTITLE6=Mercy
TTITLE7=Betcha Don't Know
TTITLE8=You Can Never Go Back
TTITLE9=All I Want Is Everything
TTITLE10=I Can't Sleep
TTITLE11=Some Other Man
TTITLE12=Talking Toombstone
TTITLE13=Tell Me What I Need To Know
TTITLE14=Twilight Walking
EXTD=YEAR: 2006
EXTT0=
EXTT1=
EXTT2=
EXTT3=
EXTT4=
EXTT5=
EXTT6=
EXTT7=
EXTT8=
EXTT9=
EXTT10=
EXTT11=
EXTT12=
EXTT13=
EXTT14=
PLAYORDER=
